# xmcd
#
# Track frame offsets: 
#        150
#        16561
#        29913
#        45131
#        72806
#        82486
#        117906
#        141662
#        154812
#        167018
#        201529
#        220059
#        252343
#        267136
#        282112
#        295836
#
# Disc length: 4185 seconds
#
# Revision: 7
# Processed by: cddbd v1.5.2PL0 Copyright (c) Steve Scherf et al.
# Submitted via: ExactAudioCopyFreeDBPlugin 1.0
#
DISCID=f1105710
DTITLE=The Legendary Blues Singers - Play Me The Blues...
DYEAR=2001
DGENRE=Blues
TTITLE0=Muddy Waters - Mannish Boy (With Little Water On The Harmonica
TTITLE0=)
TTITLE1=Muddy Waters - Baby Please Don't Go
TTITLE2=Muddy Waters - (I'm Your) Hoochie Coochie Man
TTITLE3=Muddy Waters - Caldonia
TTITLE4=Muddy Waters - Why Don't You Live So God Can Use You
TTITLE5=Muddy Waters - Kansas City
TTITLE6=Muddy Waters - Nine Below Zero
TTITLE7=Muddy Waters - I'm Gonna Cut Your Head
TTITLE8=Muddy Waters - I Can't Be Satisfied
TTITLE9=Muddy Waters - You Don't Have To Go
TTITLE10=Muddy Waters - Corrine Corrina
TTITLE11=Muddy Waters - Last Nite
TTITLE12=Muddy Waters - You Gonna Miss Me When I'm Gone
TTITLE13=Muddy Waters - I Be Bound To Write To You
TTITLE14=Muddy Waters - Tomorrow Will Be To Late
TTITLE15=Muddy Waters - Got My Mojo Working
EXTD=YEAR: 2000
EXTT0=
EXTT1=
EXTT2=
EXTT3=
EXTT4=
EXTT5=
EXTT6=
EXTT7=
EXTT8=
EXTT9=
EXTT10=
EXTT11=
EXTT12=
EXTT13=
EXTT14=
EXTT15=
PLAYORDER=
